<?xml version="1.0" standalone="no"?>
<!DOCTYPE svg PUBLIC "-//W3C//DTD SVG 20010904//EN"
 "http://www.w3.org/TR/2001/REC-SVG-20010904/DTD/svg10.dtd">
<svg version="1.0" xmlns="http://www.w3.org/2000/svg"
 width="640.000000pt" height="640.000000pt" viewBox="0 0 640.000000 640.000000"
 preserveAspectRatio="xMidYMid meet">
<metadata>
Created by potrace 1.11, written by Peter Selinger 2001-2013
</metadata>
<g transform="translate(0.000000,640.000000) scale(0.100000,-0.100000)"
fill="#000000" stroke="none">
<path d="M2570 5905 l0 -495 -495 0 -495 0 0 -112 c-2 -423 1 -1142 4 -1146 3
-2 225 -4 495 -4 l491 0 0 -496 0 -497 618 2 c339 1 623 2 630 2 9 1 12 107
12 495 l0 493 492 2 c270 0 493 3 495 5 3 3 5 518 3 1114 l0 142 -495 0 -495
0 0 495 0 495 -630 0 -630 0 0 -495z"/>
<path d="M685 3771 c-33 -11 -66 -32 -100 -67 -91 -90 -86 -36 -82 -995 1
-459 6 -846 10 -861 9 -34 41 -132 59 -178 18 -48 91 -167 129 -210 32 -36 55
-61 295 -315 78 -83 156 -166 174 -185 18 -19 94 -100 169 -180 76 -80 169
-178 207 -219 38 -41 81 -86 95 -100 45 -45 89 -112 100 -155 6 -23 12 -99 13
-171 l1 -130 508 -3 508 -2 -4 332 c-2 183 -7 347 -11 363 -26 111 -89 235
-156 306 -8 9 -287 290 -620 624 -466 468 -615 613 -650 628 -145 65 -313 -44
-312 -204 1 -66 29 -123 98 -195 33 -34 106 -112 164 -174 58 -63 122 -132
143 -154 230 -243 283 -307 314 -376 39 -89 43 -105 53 -182 l6 -58 -35 -1
c-20 0 -61 -1 -91 -2 l-54 -1 -11 60 c-17 92 -46 143 -139 244 -17 19 -58 64
-91 100 -32 36 -96 106 -141 155 -45 50 -91 100 -101 111 -10 12 -57 64 -105
115 -140 152 -182 213 -193 282 -13 78 -14 101 -5 149 21 108 86 204 180 264
25 16 47 32 50 35 8 11 4 1100 -4 1144 -31 161 -207 260 -371 206z"/>
<path d="M5550 3780 c-86 -25 -157 -87 -193 -169 -19 -44 -20 -68 -21 -614 -1
-313 1 -572 4 -576 3 -3 24 -19 47 -34 176 -113 235 -314 147 -494 -21 -44
-61 -94 -154 -193 -8 -8 -60 -65 -114 -125 -55 -61 -141 -155 -191 -210 -246
-268 -266 -297 -282 -410 -3 -22 -6 -41 -8 -43 -2 -2 -137 -5 -164 -3 -10 1
-12 14 -8 59 8 84 15 110 49 177 47 93 80 133 331 399 27 28 86 92 133 142 46
50 113 122 149 160 36 38 75 88 86 111 39 81 19 193 -47 255 -65 61 -175 78
-250 40 -24 -12 -270 -251 -646 -629 -334 -334 -617 -619 -629 -633 -71 -82
-131 -212 -148 -327 -6 -40 -11 -204 -11 -367 l0 -296 508 0 508 0 0 113 c0
61 3 131 6 153 7 58 41 122 91 177 46 50 237 252 307 326 25 26 106 112 180
191 161 172 286 303 364 385 138 143 216 260 257 386 21 65 23 70 39 149 5 25
9 408 10 854 0 743 -1 813 -17 864 -22 68 -81 133 -149 164 -51 22 -140 31
-184 18z"/>
</g>
</svg>
